<?xml version="1.0" encoding="UTF-8"?>
<svg version="1.1" xmlns="http://www.w3.org/2000/svg" width="512" height="512">
<path d="M0 0 C1.62742725 1.62039733 3.22506498 3.26263372 4.80859375 4.92578125 C5.59234375 5.70953125 6.37609375 6.49328125 7.18359375 7.30078125 C8.04984375 8.16703125 8.91609375 9.03328125 9.80859375 9.92578125 C10.72511719 10.77269531 10.72511719 10.77269531 11.66015625 11.63671875 C50.09487306 48.11475907 71.81658893 105.84043904 73.93310547 157.99389648 C75.50865751 222.46920465 53.99180834 282.72386118 9.41796875 329.57421875 C-0.43032112 339.7489207 -10.63616986 348.75453712 -22.19140625 356.92578125 C-23.33987408 357.76688567 -24.48831288 358.60802974 -25.63671875 359.44921875 C-72.16948307 392.70791384 -134.34794095 406.20411696 -190.71875 396.96484375 C-214.38251371 392.63258783 -236.31356241 385.99418345 -257.6171875 374.74951172 C-258.61621094 374.24049316 -259.61523438 373.73147461 -260.64453125 373.20703125 C-261.52270508 372.74361328 -262.40087891 372.28019531 -263.30566406 371.80273438 C-269.36026616 369.962791 -275.84602944 372.22135248 -281.71801758 374.05883789 C-282.42328079 374.27356247 -283.12854401 374.48828705 -283.85517883 374.70951843 C-285.37280293 375.17220216 -286.88956604 375.63771784 -288.40552711 376.10582161 C-290.81394627 376.84842788 -293.22514849 377.58124803 -295.63737488 378.31138611 C-302.49090104 380.38709831 -309.3404408 382.47559866 -316.18481445 384.58129883 C-320.38524907 385.87283191 -324.59002892 387.14928807 -328.79779625 388.41671562 C-330.38974412 388.89943212 -331.98000369 389.38775673 -333.56839943 389.88203621 C-346.21807081 393.81614112 -356.92644883 396.33650309 -369.19140625 389.92578125 C-374.94729153 386.34434152 -378.59722096 380.54947748 -380.56640625 374.11328125 C-382.49604959 363.7696502 -378.9389789 353.65308045 -375.98080063 343.8406868 C-375.23168528 341.35452495 -374.49598115 338.86472438 -373.76345825 336.37362671 C-371.9445739 330.19758802 -370.10432721 324.02796625 -368.26281738 317.85864258 C-366.7001719 312.62129586 -365.14662449 307.38142551 -363.60559464 302.13767624 C-362.88167748 299.68815595 -362.14444494 297.24290307 -361.40670776 294.79751587 C-360.96430401 293.29701492 -360.52254724 291.79632301 -360.08154297 290.29541016 C-359.87380249 289.6200119 -359.66606201 288.94461365 -359.45202637 288.24874878 C-357.77590653 282.45191688 -358.55968203 278.80159833 -361.23046875 273.546875 C-361.8488562 272.30429932 -361.8488562 272.30429932 -362.47973633 271.03662109 C-362.9208374 270.15441895 -363.36193848 269.2722168 -363.81640625 268.36328125 C-390.12381733 214.31906625 -393.40795364 150.33759864 -374.00390625 93.55078125 C-363.34088601 63.6267021 -347.43502178 36.61628641 -325.6171875 13.50390625 C-323.50454681 11.25858764 -321.49360009 8.96677915 -319.50390625 6.61328125 C-316.04828577 2.64420773 -312.22202459 -0.7026516 -308.19140625 -4.07421875 C-307.32902344 -4.82445312 -306.46664062 -5.5746875 -305.578125 -6.34765625 C-230.39654148 -70.84714739 -116.99652391 -78.91364329 0 0 Z M-262.81640625 162.98828125 C-267.72696472 170.26483607 -267.98900856 177.32723929 -267.19140625 185.92578125 C-266.27665829 188.96236727 -265.00301086 191.33777467 -263.19140625 193.92578125 C-262.63453125 194.81265625 -262.07765625 195.69953125 -261.50390625 196.61328125 C-256.25725949 201.85992801 -249.4751473 205.03775977 -242.06640625 205.23828125 C-233.93439806 205.14172706 -227.65945532 202.08885859 -221.6953125 196.63671875 C-216.91463996 191.19792765 -214.793772 184.38045835 -214.9140625 177.203125 C-215.83015738 169.68082476 -219.57525226 162.94163375 -225.19140625 157.92578125 C-237.16688292 149.40526857 -253.5602541 151.11968713 -262.81640625 162.98828125 Z M-176.71875 161.8828125 C-181.49853261 168.51365151 -183.41092831 175.84173296 -182.19140625 183.92578125 C-180.38473443 191.05625524 -177.20335377 196.59212118 -171.19140625 200.92578125 C-163.90759064 205.05123648 -156.72934585 206.32894736 -148.5859375 204.265625 C-141.55487761 201.80847699 -136.56797094 198.12179309 -132.875 191.6015625 C-129.37952438 183.84331174 -128.94299701 176.78161895 -131.75390625 168.73828125 C-135.05302926 161.39023455 -140.24153893 156.52761801 -147.7421875 153.5859375 C-158.41358165 150.70959681 -169.29448174 153.65117701 -176.71875 161.8828125 Z M-92.19140625 162.92578125 C-96.35648103 168.60324629 -97.42967351 174.97631948 -97.19140625 181.92578125 C-95.85098172 189.91677361 -91.47809106 196.32382244 -85.19140625 201.30078125 C-78.61658552 204.86214248 -72.61549871 205.91163635 -65.19140625 204.92578125 C-56.44692915 201.92838258 -50.96726563 196.77183595 -46.19140625 188.92578125 C-44.00395665 182.36343245 -43.87440985 173.68726157 -46.87890625 167.36328125 C-51.05652584 160.52188332 -57.59893138 155.45660621 -65.19140625 152.92578125 C-76.57077713 151.96984056 -84.42975145 154.37247208 -92.19140625 162.92578125 Z " fill="#000000" transform="translate(412.19140625,77.07421875)"/>
</svg>
